<svg width="16" height="17" viewBox="0 0 16 17" fill="none" xmlns="http://www.w3.org/2000/svg">
<g id="Icons">
<mask id="mask0_662_193" style="mask-type:alpha" maskUnits="userSpaceOnUse" x="0" y="0" width="16" height="17">
<rect id="Bounding box" y="0.5" width="16" height="16" fill="#fff"/>
</mask>
<g mask="url(#mask0_662_193)">
<path id="keyboard_arrow_down" d="M7.99987 10.4834C7.91098 10.4834 7.82498 10.4667 7.74187 10.4334C7.65831 10.4 7.58876 10.3556 7.5332 10.3L4.46654 7.23337C4.34431 7.11114 4.2832 6.95559 4.2832 6.7667C4.2832 6.57781 4.34431 6.42225 4.46654 6.30003C4.58876 6.17781 4.74431 6.1167 4.9332 6.1167C5.12209 6.1167 5.27765 6.17781 5.39987 6.30003L7.99987 8.90003L10.5999 6.30003C10.7221 6.17781 10.8776 6.1167 11.0665 6.1167C11.2554 6.1167 11.411 6.17781 11.5332 6.30003C11.6554 6.42225 11.7165 6.57781 11.7165 6.7667C11.7165 6.95559 11.6554 7.11114 11.5332 7.23337L8.46654 10.3C8.39987 10.3667 8.32765 10.4138 8.24987 10.4414C8.17209 10.4694 8.08876 10.4834 7.99987 10.4834Z" fill="#fff"/>
</g>
</g>
</svg>
