<svg width="30" height="20" viewBox="0 0 30 20" fill="none" xmlns="http://www.w3.org/2000/svg">
<path d="M29.8187 9.23958C26.9942 3.72865 21.4026 0 15 0C8.59737 0 3.00414 3.73125 0.181222 9.2401C0.0620767 9.47579 0 9.73617 0 10.0003C0 10.2643 0.0620767 10.5247 0.181222 10.7604C3.0057 16.2714 8.59737 20 15 20C21.4026 20 26.9958 16.2687 29.8187 10.7599C29.9379 10.5242 29.9999 10.2638 29.9999 9.99974C29.9999 9.73565 29.9379 9.47526 29.8187 9.23958ZM15 17.5C13.5166 17.5 12.0666 17.0601 10.8332 16.236C9.59983 15.4119 8.63853 14.2406 8.07088 12.8701C7.50322 11.4997 7.35469 9.99168 7.64408 8.53682C7.93347 7.08196 8.64778 5.74559 9.69667 4.6967C10.7456 3.6478 12.0819 2.9335 13.5368 2.64411C14.9917 2.35472 16.4997 2.50325 17.8701 3.0709C19.2405 3.63856 20.4119 4.59985 21.236 5.83322C22.0601 7.06659 22.5 8.51664 22.5 10C22.5005 10.985 22.3068 11.9605 21.93 12.8707C21.5533 13.7809 21.0009 14.6078 20.3043 15.3044C19.6078 16.0009 18.7808 16.5533 17.8707 16.9301C16.9605 17.3068 15.985 17.5005 15 17.5ZM15 5C14.5537 5.00624 14.1103 5.07263 13.6817 5.1974C14.035 5.67743 14.2045 6.26817 14.1595 6.86247C14.1146 7.45677 13.8581 8.01528 13.4367 8.43672C13.0153 8.85815 12.4567 9.1146 11.8624 9.15956C11.2681 9.20452 10.6774 9.03501 10.1974 8.68177C9.92402 9.68885 9.97336 10.7563 10.3385 11.7339C10.7035 12.7114 11.366 13.5499 12.2326 14.1312C13.0992 14.7126 14.1262 15.0075 15.1692 14.9746C16.2122 14.9416 17.2186 14.5824 18.0468 13.9476C18.8749 13.3127 19.4832 12.4341 19.7858 11.4354C20.0885 10.4368 20.0704 9.36832 19.734 8.38051C19.3976 7.39269 18.7599 6.53523 17.9107 5.92881C17.0615 5.32239 16.0435 4.99754 15 5Z" fill="#676767"/>
</svg>
